<svg width="16" height="16" viewBox="0 0 16 16" fill="none" xmlns="http://www.w3.org/2000/svg">
<path fill-rule="evenodd" clip-rule="evenodd" d="M7.37578 2.7962C7.4825 2.54669 7.72833 2.38477 7.99993 2.38477C8.27152 2.38477 8.51735 2.54669 8.62408 2.7962C9.21143 4.16301 9.99971 6.00013 9.99971 6.00013C9.99971 6.00013 11.9038 6.16279 13.3619 6.28791C13.6357 6.31147 13.8683 6.49768 13.9514 6.75971C14.0346 7.02247 13.9514 7.30878 13.7402 7.48543C12.5839 8.45625 11.0485 9.7443 11.0485 9.7443C11.0485 9.7443 11.5189 11.5534 11.8891 12.9755C11.959 13.2463 11.8567 13.5326 11.63 13.6968C11.4033 13.8609 11.0993 13.8697 10.8638 13.7181C9.60888 12.9122 7.99993 11.8788 7.99993 11.8788C7.99993 11.8788 6.39097 12.9122 5.13605 13.7181C4.90052 13.8697 4.59654 13.8609 4.36984 13.6968C4.14315 13.5326 4.04084 13.2463 4.11076 12.9755C4.48098 11.5534 4.95131 9.7443 4.95131 9.7443C4.95131 9.7443 3.41595 8.45625 2.25966 7.48543C2.04842 7.30878 1.96525 7.02247 2.04842 6.75971C2.13159 6.49768 2.36417 6.31147 2.63797 6.28791C4.09604 6.16279 6.00014 6.00013 6.00014 6.00013C6.00014 6.00013 6.78843 4.16301 7.37578 2.7962Z" fill="#FCC41B" stroke="#FCC41B" stroke-width="1.50149" stroke-miterlimit="1.5" stroke-linecap="round" stroke-linejoin="round"/>
</svg>
