<svg width="16" height="16" viewBox="0 0 16 16" fill="none" xmlns="http://www.w3.org/2000/svg">
<path d="M8.00008 13.9997C10.9456 13.9997 13.3334 11.6119 13.3334 8.66634C13.3334 5.72082 10.9456 3.33301 8.00008 3.33301C5.05456 3.33301 2.66675 5.72082 2.66675 8.66634C2.66675 11.6119 5.05456 13.9997 8.00008 13.9997Z" stroke="#79808F" stroke-width="1.5" stroke-miterlimit="1.5" stroke-linecap="round" stroke-linejoin="round"/>
<path d="M6.3335 2H9.66683" stroke="#79808F" stroke-width="1.5" stroke-miterlimit="1.5" stroke-linecap="round" stroke-linejoin="round"/>
<path d="M12.3334 3.66699L11.6667 4.33366" stroke="#79808F" stroke-width="1.5" stroke-miterlimit="1.5" stroke-linecap="round" stroke-linejoin="round"/>
<path d="M4.33341 4.33366L3.66675 3.66699" stroke="#79808F" stroke-width="1.5" stroke-miterlimit="1.5" stroke-linecap="round" stroke-linejoin="round"/>
<path d="M8 6.66699V9.00033" stroke="#79808F" stroke-width="1.5" stroke-miterlimit="1.5" stroke-linecap="round" stroke-linejoin="round"/>
<path d="M8.00016 9.66634C8.36835 9.66634 8.66683 9.36786 8.66683 8.99967C8.66683 8.63148 8.36835 8.33301 8.00016 8.33301C7.63197 8.33301 7.3335 8.63148 7.3335 8.99967C7.3335 9.36786 7.63197 9.66634 8.00016 9.66634Z" fill="#79808F"/>
</svg>
